<?xml version="1.0" standalone="no"?><!DOCTYPE svg PUBLIC "-//W3C//DTD SVG 1.1//EN" "http://www.w3.org/Graphics/SVG/1.1/DTD/svg11.dtd"><svg class="icon" height="512" viewBox="0 0 1024 1024" version="1.1" xmlns="http://www.w3.org/2000/svg"><path fill="#444444" d="M293.184 0l-69.184 137.232-69.184-137.232-88.256 0 124.704 217.312 0.72-0.432 0 167.12 64 0 0-167.12 0.72 0.432 124.704-217.312zM480 128c17.344 0 32 14.656 32 32l0 128c0 17.344-14.656 32-32 32s-32-14.656-32-32l0-128c0-17.344 14.656-32 32-32zM480 64c-52.8 0-96 43.2-96 96l0 128c0 52.8 43.2 96 96 96s96-43.2 96-96l0-128c0-52.8-43.2-96-96-96l0 0zM768 64l0 251.968c-27.92 23.296-64 37.328-64-45.632l0-206.336-64 0 0 219.328 0.096 0c0.992 52.912 12.144 148.176 127.904 70.704l0 29.968 64 0 0-320-64 0zM864 704c-17.648 0-32 14.352-32 32l0 32 64 0 0-32c0-17.648-14.352-32-32-32zM576 736l0 168c21.664 21.664 64 24 64-8s0-118 0-150-32-42-64-10zM1018.768 581.536c-2.8-36.864-16.048-66.944-39.776-90.24s-54.08-36-91.072-38.08c-69.776-3.472-229.456-5.216-369.712-5.216s-311.296 1.744-381.072 5.216c-36.992 2.08-67.344 14.784-91.072 38.08s-36.992 53.376-39.776 90.24c-4.192 75.12-6.288 102.352-6.288 139.904s2.096 93.888 6.288 169.008c2.784 36.864 16.048 66.944 39.776 90.24s54.08 35.984 91.072 38.08c69.776 3.472 240.816 5.216 381.072 5.216s299.936-1.744 369.712-5.216c36.992-2.08 67.344-14.784 91.072-38.08s36.992-53.376 39.776-90.24c3.488-62.592 5.232-118.928 5.232-169.008s-1.744-77.312-5.232-139.904zM192 960l-64 0 0-320-64 0 0-64 192 0 0 64-64 0 0 320zM448 960l-64 0 0-29.968c-121.664 68.288-126.912 2.192-127.904-50.704l-0.096 0 0-175.328 64 0 0 176.336c0 38.672 36.08 34.928 64 11.632l0-187.968 64 0 0 256zM704 895.088c0 66.896-68.512 86.4-128 34.384l0 30.528-64 0 0-384 64 0 0 104c64-64 128-40 128 24s0 121.168 0 191.088zM960 768l0 32-128 0 0 64c0 17.648 14.352 32 32 32s32-14.352 32-32l0-32 64 0 0 32c0 52.928-43.072 96-96 96s-96-43.072-96-96l0-128c0-52.928 43.072-96 96-96s96 43.072 96 96l0 32z" /></svg>
